<?xml version="1.0" encoding="utf-8"?>
<!-- Svg Vector Icons : http://www.onlinewebfonts.com/icon -->
<!DOCTYPE svg PUBLIC "-//W3C//DTD SVG 1.1//EN" "http://www.w3.org/Graphics/SVG/1.1/DTD/svg11.dtd">
<svg version="1.1" xmlns="http://www.w3.org/2000/svg" xmlns:xlink="http://www.w3.org/1999/xlink" x="0px" y="0px" viewBox="0 0 1000 1000" enable-background="new 0 0 1000 1000" xml:space="preserve">
<metadata> Svg Vector Icons : http://www.onlinewebfonts.com/icon </metadata>
<g><path d="M971.8,417.7c-22.3-34.7-60.4-54.2-99.7-55.3c-1.6-0.2-3.2-0.3-4.9-0.3h-0.1l-125-0.1l-102.7-0.1c15.4-42.6,23.8-88.3,23.8-136c0-30.9-3.5-61-10.2-90l-0.6,0.1c-12.2-50.8-59.3-88.6-115.7-88.6c-13.3,0-26,2.1-37.9,6c-47,15.3-80.8,58-80.8,108.5c0,1.4,0.1,2.8,0.1,4.2c0.1,2.2,0.2,4.4,0.4,6.6c-3.7,121.3-102.4,219.6-226.9,228.2l0,0.7l-135.5,0.3c-1.6-0.2-3.3-0.3-5-0.3c-22.5,0-40.8,17.6-40.8,39.3l0,40.5l-0.1,159.3L10,913.2c0,21.7,18.3,39.3,40.8,39.3c2.2,0,4.4-0.2,6.5-0.5L208,952c2,0.3,4,0.5,6.1,0.5c2.1,0,4.1-0.2,6.1-0.5l557.5,0.2c25.1,1.9,51-3.8,73.8-17.8c19.4-11.9,34.1-28.3,43.5-46.8c2.3-3.4,4.1-7.2,5.2-11.3l0.4-1.9c2.9-8.1,4.9-16.5,5.9-25l54.9-233.6l24.1-102.6l2.9-12.2c1.2-4.2,1.5-8.5,1.3-12.6C991.6,464.5,985.9,439.7,971.8,417.7 M197.3,455.3l-0.1,184.6l-0.2,258.4l-126.7,0l0.2-258l0.2-184.8L197.3,455.3z M847.7,876.9c0,0-12.4,20.6-46.2,22.7l-7.2,0l-121.8,0l-417.6-0.2l0.2-259.9l0.2-182c87.9-21.5,135.6-64.5,178.5-139.3c9.8-17,17.9-35,24.3-53.8c0.1,0,0.1,0.1,0.2,0.1c3.5-10,7.3-22.6,10-36.2c6.4-31.8,5.7-62.6,5.7-62.6l0.5,0c-0.1-0.8-0.1-1.7-0.1-2.5c0-20.3,15.3-67.5,64.1-67.2c58.4,0.3,65.2,46.9,65.2,67.2c0,0.6-0.1,1.1-0.1,1.7l0.3,0c0,0,6.1,29.5,6.2,61.7c0,17.4-1,31.3-2.1,41.4c-1.5,13.6-3.3,20.5-3.3,20.5l-0.5,0c-23.4,86.7-48,84.1-33.6,113.9c7.9,16.3,43.9,10.9,43.9,10.9l150,0.1l126.3,0.1c0,0,0.1,0,0.1,0v0.1c13.9-0.7,34.5,11.2,42.3,23.4c6.3,9.8,11.3,36.5,7.9,46.7l-51.8,212.8L847.7,876.9z"/></g>
</svg>